<svg xmlns="http://www.w3.org/2000/svg" xmlns:xlink="http://www.w3.org/1999/xlink" width="500" zoomAndPan="magnify" viewBox="0 0 375 374.999991" height="500" preserveAspectRatio="xMidYMid meet" version="1.0"><defs><g/><clipPath id="ee2c237ada"><path d="M 15 46 L 97 46 L 97 129 L 15 129 Z M 15 46 " clip-rule="nonzero"/></clipPath><clipPath id="d266cc5ac2"><path d="M 79.710938 39.742188 L 104.078125 64.109375 L 32.882812 135.300781 L 8.519531 110.9375 Z M 79.710938 39.742188 " clip-rule="nonzero"/></clipPath><clipPath id="7f0017dc98"><path d="M 91.894531 51.925781 C 95.125 55.15625 96.941406 59.539062 96.941406 64.109375 C 96.941406 68.679688 95.125 73.058594 91.894531 76.292969 L 45.097656 123.089844 C 41.867188 126.320312 37.484375 128.136719 32.914062 128.136719 C 28.34375 128.136719 23.960938 126.320312 20.730469 123.089844 C 17.5 119.859375 15.683594 115.476562 15.683594 110.90625 C 15.683594 106.335938 17.5 101.953125 20.730469 98.722656 L 67.527344 51.925781 C 70.761719 48.695312 75.140625 46.878906 79.710938 46.878906 C 84.28125 46.878906 88.664062 48.695312 91.894531 51.925781 Z M 91.894531 51.925781 " clip-rule="nonzero"/></clipPath><clipPath id="7b9a01d3c9"><path d="M 0.601562 0.640625 L 81.960938 0.640625 L 81.960938 82.238281 L 0.601562 82.238281 Z M 0.601562 0.640625 " clip-rule="nonzero"/></clipPath><clipPath id="e137c7f6c2"><path d="M 64.710938 -6.257812 L 89.078125 18.109375 L 17.882812 89.300781 L -6.480469 64.9375 Z M 64.710938 -6.257812 " clip-rule="nonzero"/></clipPath><clipPath id="0b324618e5"><path d="M 76.894531 5.925781 C 80.125 9.15625 81.941406 13.539062 81.941406 18.109375 C 81.941406 22.679688 80.125 27.058594 76.894531 30.292969 L 30.097656 77.089844 C 26.867188 80.320312 22.484375 82.136719 17.914062 82.136719 C 13.34375 82.136719 8.960938 80.320312 5.730469 77.089844 C 2.5 73.859375 0.683594 69.476562 0.683594 64.90625 C 0.683594 60.335938 2.5 55.953125 5.730469 52.722656 L 52.527344 5.925781 C 55.761719 2.695312 60.140625 0.878906 64.710938 0.878906 C 69.28125 0.878906 73.664062 2.695312 76.894531 5.925781 Z M 76.894531 5.925781 " clip-rule="nonzero"/></clipPath><clipPath id="99bfcb44ec"><rect x="0" width="82" y="0" height="83"/></clipPath><clipPath id="968d05c99c"><path d="M 0 43.480469 L 100.625 43.480469 L 100.625 77.9375 L 0 77.9375 Z M 0 43.480469 " clip-rule="nonzero"/></clipPath><clipPath id="7d2703df18"><path d="M 100.625 60.707031 C 100.625 65.277344 98.8125 69.660156 95.578125 72.890625 C 92.347656 76.121094 87.964844 77.9375 83.398438 77.9375 L 17.214844 77.9375 C 12.644531 77.9375 8.261719 76.121094 5.03125 72.890625 C 1.800781 69.660156 -0.015625 65.277344 -0.015625 60.707031 C -0.015625 56.140625 1.800781 51.757812 5.03125 48.527344 C 8.261719 45.292969 12.644531 43.480469 17.214844 43.480469 L 83.398438 43.480469 C 87.964844 43.480469 92.347656 45.292969 95.578125 48.527344 C 98.8125 51.757812 100.625 56.140625 100.625 60.707031 Z M 100.625 60.707031 " clip-rule="nonzero"/></clipPath><clipPath id="2c2325f6d4"><path d="M 0 0.480469 L 100.625 0.480469 L 100.625 34.9375 L 0 34.9375 Z M 0 0.480469 " clip-rule="nonzero"/></clipPath><clipPath id="4d219fe7c5"><path d="M 100.625 17.707031 C 100.625 22.277344 98.8125 26.660156 95.578125 29.890625 C 92.347656 33.121094 87.964844 34.9375 83.398438 34.9375 L 17.214844 34.9375 C 12.644531 34.9375 8.261719 33.121094 5.03125 29.890625 C 1.800781 26.660156 -0.015625 22.277344 -0.015625 17.707031 C -0.015625 13.140625 1.800781 8.757812 5.03125 5.527344 C 8.261719 2.292969 12.644531 0.480469 17.214844 0.480469 L 83.398438 0.480469 C 87.964844 0.480469 92.347656 2.292969 95.578125 5.527344 C 98.8125 8.757812 100.625 13.140625 100.625 17.707031 Z M 100.625 17.707031 " clip-rule="nonzero"/></clipPath><clipPath id="fab49a572e"><rect x="0" width="101" y="0" height="35"/></clipPath><clipPath id="71e270a7bd"><path d="M 66.179688 43.472656 L 100.640625 43.472656 L 100.640625 144.15625 L 66.179688 144.15625 Z M 66.179688 43.472656 " clip-rule="nonzero"/></clipPath><clipPath id="310e3216d0"><path d="M 83.410156 43.472656 C 87.980469 43.472656 92.363281 45.285156 95.59375 48.515625 C 98.824219 51.75 100.640625 56.128906 100.640625 60.699219 L 100.640625 126.882812 C 100.640625 131.449219 98.824219 135.832031 95.59375 139.066406 C 92.363281 142.296875 87.980469 144.109375 83.410156 144.109375 C 78.839844 144.109375 74.457031 142.296875 71.226562 139.066406 C 67.996094 135.832031 66.179688 131.449219 66.179688 126.882812 L 66.179688 60.699219 C 66.179688 56.128906 67.996094 51.75 71.226562 48.515625 C 74.457031 45.285156 78.839844 43.472656 83.410156 43.472656 Z M 83.410156 43.472656 " clip-rule="nonzero"/></clipPath><clipPath id="a6d64ef997"><path d="M 0.179688 0.472656 L 34.640625 0.472656 L 34.640625 101.15625 L 0.179688 101.15625 Z M 0.179688 0.472656 " clip-rule="nonzero"/></clipPath><clipPath id="b9265edc59"><path d="M 17.410156 0.472656 C 21.980469 0.472656 26.363281 2.285156 29.59375 5.515625 C 32.824219 8.75 34.640625 13.128906 34.640625 17.699219 L 34.640625 83.882812 C 34.640625 88.449219 32.824219 92.832031 29.59375 96.066406 C 26.363281 99.296875 21.980469 101.109375 17.410156 101.109375 C 12.839844 101.109375 8.457031 99.296875 5.226562 96.066406 C 1.996094 92.832031 0.179688 88.449219 0.179688 83.882812 L 0.179688 17.699219 C 0.179688 13.128906 1.996094 8.75 5.226562 5.515625 C 8.457031 2.285156 12.839844 0.472656 17.410156 0.472656 Z M 17.410156 0.472656 " clip-rule="nonzero"/></clipPath><clipPath id="a90d51a592"><rect x="0" width="35" y="0" height="102"/></clipPath><clipPath id="968daabddd"><rect x="0" width="373" y="0" height="175"/></clipPath></defs><g transform="matrix(1, 0, 0, 1, 0, 100)"><g clip-path="url(#968daabddd)"><g clip-path="url(#ee2c237ada)"><g clip-path="url(#d266cc5ac2)"><g clip-path="url(#7f0017dc98)"><g transform="matrix(1, 0, 0, 1, 15, 46)"><g clip-path="url(#99bfcb44ec)"><g clip-path="url(#7b9a01d3c9)"><g clip-path="url(#e137c7f6c2)"><g clip-path="url(#0b324618e5)"><path fill="#0047ff" d="M 64.710938 -6.257812 L 89.078125 18.109375 L 17.882812 89.300781 L -6.480469 64.9375 Z M 64.710938 -6.257812 " fill-opacity="1" fill-rule="nonzero"/></g></g></g></g></g></g></g></g><g clip-path="url(#968d05c99c)"><g clip-path="url(#7d2703df18)"><g transform="matrix(1, 0, 0, 1, 0, 43)"><g clip-path="url(#fab49a572e)"><g clip-path="url(#2c2325f6d4)"><g clip-path="url(#4d219fe7c5)"><path fill="#0047ff" d="M 100.625 0.480469 L 100.625 34.9375 L -0.0585938 34.9375 L -0.0585938 0.480469 Z M 100.625 0.480469 " fill-opacity="1" fill-rule="nonzero"/></g></g></g></g></g></g><g clip-path="url(#71e270a7bd)"><g clip-path="url(#310e3216d0)"><g transform="matrix(1, 0, 0, 1, 66, 43)"><g clip-path="url(#a90d51a592)"><g clip-path="url(#a6d64ef997)"><g clip-path="url(#b9265edc59)"><path fill="#0047ff" d="M 0.179688 0.472656 L 34.640625 0.472656 L 34.640625 101.15625 L 0.179688 101.15625 Z M 0.179688 0.472656 " fill-opacity="1" fill-rule="nonzero"/></g></g></g></g></g></g><g fill="#000000" fill-opacity="1"><g transform="translate(113.127566, 131.377127)"><g><path d="M 57.472656 -40.441406 C 68.230469 -43.28125 73.554688 -50.257812 73.554688 -61.019531 C 73.554688 -72.960938 67.050781 -84.195312 46.945312 -84.195312 L 7.6875 -84.195312 L 7.6875 0 L 25.1875 0 L 25.1875 -32.636719 L 40.679688 -32.636719 C 49.785156 -32.636719 52.742188 -28.855469 53.449219 -21.640625 L 55.460938 0 L 73.433594 0 L 70.003906 -26.726562 C 69.296875 -32.28125 67.285156 -38.433594 57.472656 -40.441406 Z M 25.1875 -69.53125 L 44.34375 -69.53125 C 52.976562 -69.53125 56.40625 -64.800781 56.40625 -58.652344 C 56.40625 -52.148438 52.503906 -46.828125 41.980469 -46.828125 L 25.1875 -46.828125 Z M 25.1875 -69.53125 "/></g></g></g><g fill="#000000" fill-opacity="1"><g transform="translate(186.313288, 131.377127)"><g><path d="M 61.136719 0 C 59.363281 -3.074219 58.773438 -7.09375 58.773438 -12.769531 L 58.773438 -39.734375 C 58.773438 -54.75 49.902344 -62.4375 32.402344 -62.4375 C 15.964844 -62.4375 7.566406 -56.171875 6.386719 -42.808594 L 21.640625 -42.570312 C 22.46875 -48.246094 25.660156 -50.613281 32.519531 -50.613281 C 39.140625 -50.613281 42.808594 -48.484375 42.808594 -43.988281 L 42.808594 -39.496094 L 21.523438 -35.238281 C 9.222656 -32.757812 2.957031 -26.488281 2.957031 -16.792969 C 2.957031 -5.675781 11.234375 1.773438 24.125 1.773438 C 32.164062 1.773438 38.785156 -1.183594 42.925781 -6.148438 C 43.28125 -4.019531 43.753906 -2.128906 44.226562 0 Z M 28.855469 -10.523438 C 22.703125 -10.523438 19.273438 -13.480469 19.273438 -17.855469 C 19.273438 -21.875 22.113281 -24.476562 27.199219 -25.542969 L 42.808594 -28.855469 L 42.808594 -24.359375 C 42.808594 -15.371094 36.777344 -10.523438 28.855469 -10.523438 Z M 28.855469 -10.523438 "/></g></g></g><g fill="#000000" fill-opacity="1"><g transform="translate(245.310887, 131.377127)"><g><path d="M 37.132812 -30.863281 C 36.066406 -27.316406 34.765625 -23.058594 33.582031 -18.566406 C 32.28125 -23.058594 31.101562 -27.433594 29.917969 -30.980469 L 20.101562 -61.019531 L 1.773438 -61.019531 L 25.542969 3.074219 L 24.953125 4.730469 C 23.652344 8.394531 21.285156 9.933594 16.320312 9.933594 L 8.277344 9.933594 L 8.277344 24.125 L 22.230469 24.125 C 30.863281 24.125 36.066406 21.523438 39.613281 10.878906 L 63.972656 -61.019531 L 46.238281 -61.019531 Z M 37.132812 -30.863281 "/></g></g></g><g fill="#000000" fill-opacity="1"><g transform="translate(304.190234, 131.377127)"><g><path d="M 35.003906 2.011719 C 53.332031 2.011719 66.222656 -11.824219 66.222656 -30.273438 C 66.222656 -48.71875 53.332031 -62.554688 35.003906 -62.554688 C 16.671875 -62.554688 3.785156 -48.71875 3.785156 -30.273438 C 3.785156 -11.824219 16.671875 2.011719 35.003906 2.011719 Z M 35.003906 -10.996094 C 25.660156 -10.996094 19.867188 -18.566406 19.867188 -30.273438 C 19.867188 -41.980469 25.660156 -49.546875 35.003906 -49.546875 C 44.34375 -49.546875 50.140625 -41.980469 50.140625 -30.273438 C 50.140625 -18.566406 44.34375 -10.996094 35.003906 -10.996094 Z M 35.003906 -10.996094 "/></g></g></g></g></g></svg>