<svg xmlns="http://www.w3.org/2000/svg" xmlns:xlink="http://www.w3.org/1999/xlink" width="407" zoomAndPan="magnify" viewBox="0 0 305.25 30.000001" height="40" preserveAspectRatio="xMidYMid meet" version="1.0"><defs><clipPath id="315c98a7cd"><path d="M 7.355469 0 L 297.464844 0 L 297.464844 29.003906 L 7.355469 29.003906 Z M 7.355469 0 " clip-rule="nonzero"/></clipPath></defs><g clip-path="url(#315c98a7cd)"><path fill="#0047ff" d="M 297.464844 -0.0273438 L 291.4375 -0.0273438 L 291.4375 29.050781 L 297.464844 29.050781 Z M 297.464844 29.050781 L 287.277344 29.050781 L 269.5 17.867188 L 278.613281 17.867188 C 279.621094 17.875 280.589844 17.675781 281.515625 17.277344 C 282.40625 16.894531 283.195312 16.355469 283.882812 15.667969 C 284.574219 14.972656 285.113281 14.175781 285.496094 13.273438 C 285.894531 12.355469 286.089844 11.394531 286.082031 10.394531 L 286.082031 7.4375 C 286.089844 6.429688 285.894531 5.464844 285.496094 4.535156 C 285.109375 3.644531 284.570312 2.855469 283.882812 2.167969 C 283.195312 1.480469 282.40625 0.941406 281.515625 0.554688 C 280.589844 0.160156 279.621094 -0.0351562 278.613281 -0.03125 L 250.898438 -0.03125 L 250.898438 29.046875 L 257 29.046875 L 257 17.863281 L 259.707031 17.863281 L 278.023438 29.046875 Z M 256.921875 11.839844 L 256.921875 6 L 278.539062 6 C 278.628906 6 278.71875 6.011719 278.8125 6.027344 C 279.09375 6.085938 279.335938 6.214844 279.539062 6.417969 C 279.835938 6.695312 279.980469 7.035156 279.976562 7.441406 L 279.976562 10.398438 C 279.980469 10.804688 279.835938 11.144531 279.539062 11.421875 C 279.261719 11.699219 278.925781 11.839844 278.535156 11.839844 Z M 210.75 29.050781 L 245.210938 29.050781 L 245.210938 23.058594 L 216.796875 23.058594 L 216.796875 17.867188 L 245.210938 17.867188 L 245.210938 11.839844 L 216.796875 11.839844 L 216.796875 6 L 245.210938 6 L 245.210938 -0.0273438 L 210.75 -0.0273438 L 210.75 6 L 210.757812 6 L 210.757812 11.839844 L 210.75 11.839844 Z M 204.476562 13.273438 C 204.875 12.355469 205.070312 11.394531 205.066406 10.394531 L 205.066406 7.4375 C 205.070312 6.429688 204.875 5.464844 204.476562 4.535156 C 204.089844 3.644531 203.554688 2.855469 202.867188 2.167969 C 202.179688 1.480469 201.390625 0.941406 200.496094 0.554688 C 200.042969 0.359375 199.574219 0.214844 199.089844 0.113281 C 198.59375 0.015625 198.09375 -0.03125 197.589844 -0.0273438 L 169.957031 -0.0273438 L 169.957031 29.050781 L 175.988281 29.050781 L 175.988281 17.867188 L 197.589844 17.867188 C 198.597656 17.875 199.566406 17.675781 200.492188 17.28125 C 201.382812 16.894531 202.171875 16.355469 202.859375 15.667969 C 203.554688 14.976562 204.09375 14.175781 204.476562 13.273438 M 199.035156 10.390625 C 199.042969 10.800781 198.894531 11.140625 198.597656 11.417969 C 198.320312 11.695312 197.984375 11.835938 197.59375 11.832031 L 175.980469 11.832031 L 175.980469 5.996094 L 197.589844 5.996094 C 197.683594 5.996094 197.773438 6.003906 197.867188 6.023438 C 198.148438 6.082031 198.390625 6.210938 198.59375 6.414062 C 198.890625 6.6875 199.035156 7.03125 199.03125 7.4375 Z M 163.683594 13.273438 C 164.082031 12.355469 164.277344 11.394531 164.269531 10.394531 L 164.269531 7.4375 C 164.273438 6.429688 164.078125 5.464844 163.683594 4.535156 C 163.296875 3.644531 162.757812 2.855469 162.070312 2.167969 C 161.382812 1.480469 160.59375 0.941406 159.703125 0.554688 C 158.777344 0.160156 157.808594 -0.0351562 156.804688 -0.03125 L 129.148438 -0.03125 L 129.148438 29.046875 L 135.1875 29.046875 L 135.1875 17.863281 L 156.800781 17.863281 C 157.804688 17.867188 158.773438 17.671875 159.699219 17.277344 C 160.589844 16.890625 161.378906 16.351562 162.066406 15.664062 C 162.757812 14.972656 163.296875 14.175781 163.683594 13.273438 M 158.226562 10.394531 C 158.234375 10.800781 158.089844 11.140625 157.789062 11.417969 C 157.515625 11.695312 157.183594 11.832031 156.792969 11.832031 L 135.167969 11.832031 L 135.167969 5.996094 L 156.785156 5.996094 C 157.179688 5.996094 157.515625 6.136719 157.789062 6.414062 C 158.089844 6.691406 158.234375 7.03125 158.226562 7.4375 Z M 117.453125 29.050781 L 123.480469 29.050781 L 123.480469 7.519531 C 123.488281 6.496094 123.292969 5.519531 122.894531 4.578125 C 122.894531 4.566406 122.882812 4.554688 122.875 4.539062 C 122.492188 3.65625 121.964844 2.871094 121.285156 2.191406 C 120.589844 1.5 119.792969 0.957031 118.894531 0.5625 C 117.960938 0.164062 116.988281 -0.0351562 115.976562 -0.0273438 L 95.421875 -0.0273438 C 94.40625 -0.0351562 93.433594 0.164062 92.503906 0.5625 C 91.605469 0.957031 90.808594 1.5 90.113281 2.191406 C 89.433594 2.871094 88.902344 3.65625 88.523438 4.539062 L 88.503906 4.578125 C 88.105469 5.519531 87.910156 6.496094 87.914062 7.519531 L 87.914062 29.050781 L 93.945312 29.050781 L 93.945312 17.867188 L 117.453125 17.867188 Z M 96.195312 6 L 115.933594 6 C 116.355469 5.996094 116.714844 6.140625 117.011719 6.4375 C 117.308594 6.738281 117.457031 7.097656 117.449219 7.519531 L 117.449219 11.839844 L 93.941406 11.839844 L 93.941406 7.519531 C 93.9375 7.097656 94.082031 6.738281 94.378906 6.4375 C 94.679688 6.140625 95.039062 5.996094 95.460938 6 Z M 81.640625 13.273438 C 82.039062 12.355469 82.234375 11.394531 82.230469 10.394531 L 82.230469 7.4375 C 82.234375 6.429688 82.039062 5.464844 81.640625 4.535156 C 81.253906 3.644531 80.71875 2.855469 80.03125 2.167969 C 79.34375 1.480469 78.550781 0.941406 77.660156 0.554688 C 76.734375 0.160156 75.765625 -0.0351562 74.761719 -0.03125 L 47.121094 -0.03125 L 47.121094 29.046875 L 53.148438 29.046875 L 53.148438 17.863281 L 74.761719 17.863281 C 75.769531 17.867188 76.734375 17.671875 77.660156 17.277344 C 78.554688 16.890625 79.34375 16.351562 80.03125 15.664062 C 80.722656 14.972656 81.257812 14.175781 81.640625 13.273438 M 76.195312 10.398438 C 76.203125 10.804688 76.058594 11.144531 75.757812 11.421875 C 75.484375 11.699219 75.148438 11.839844 74.757812 11.839844 L 53.144531 11.839844 L 53.144531 6 L 74.761719 6 C 75.152344 6 75.488281 6.140625 75.765625 6.417969 C 76.0625 6.695312 76.207031 7.035156 76.199219 7.441406 Z M 40.847656 24.5 C 41.246094 23.582031 41.445312 22.621094 41.4375 21.621094 L 41.4375 19.308594 C 41.441406 18.300781 41.246094 17.332031 40.847656 16.40625 C 40.464844 15.515625 39.925781 14.726562 39.238281 14.039062 C 38.550781 13.351562 37.761719 12.8125 36.867188 12.425781 C 35.941406 12.027344 34.976562 11.832031 33.96875 11.839844 L 14.824219 11.839844 C 14.421875 11.847656 14.082031 11.707031 13.800781 11.421875 C 13.511719 11.140625 13.375 10.800781 13.382812 10.398438 L 13.382812 7.441406 C 13.375 7.039062 13.511719 6.699219 13.800781 6.417969 C 14.082031 6.132812 14.421875 5.992188 14.824219 6 L 41.4375 6 L 41.4375 -0.0273438 L 14.824219 -0.0273438 C 13.820312 -0.0351562 12.863281 0.160156 11.941406 0.558594 C 11.042969 0.941406 10.246094 1.480469 9.554688 2.171875 C 8.867188 2.859375 8.328125 3.648438 7.941406 4.542969 C 7.542969 5.46875 7.347656 6.433594 7.355469 7.441406 L 7.355469 10.398438 C 7.347656 11.398438 7.542969 12.355469 7.941406 13.273438 C 8.324219 14.175781 8.863281 14.972656 9.554688 15.664062 C 10.246094 16.355469 11.042969 16.890625 11.941406 17.273438 C 12.859375 17.671875 13.820312 17.867188 14.824219 17.863281 L 33.964844 17.863281 C 34.367188 17.851562 34.707031 17.992188 34.988281 18.277344 C 35.273438 18.558594 35.414062 18.902344 35.40625 19.304688 L 35.40625 21.617188 C 35.414062 22.015625 35.273438 22.359375 34.988281 22.640625 C 34.707031 22.925781 34.367188 23.066406 33.964844 23.054688 L 7.355469 23.054688 L 7.355469 29.046875 L 33.96875 29.046875 C 34.976562 29.050781 35.941406 28.855469 36.867188 28.460938 C 37.757812 28.074219 38.546875 27.542969 39.238281 26.867188 C 39.933594 26.183594 40.46875 25.394531 40.847656 24.496094 " fill-opacity="1" fill-rule="nonzero"/></g></svg>